<svg width="20" height="22" viewBox="0 0 20 22" fill="none" xmlns="http://www.w3.org/2000/svg">
<path d="M15.7499 3.08998L13.2199 5.02998L14.1299 8.08998L11.4999 6.27998L8.86995 8.08998L9.77995 5.02998L7.24995 3.08998L10.4399 2.99998L11.4999 -2.28882e-05L12.5599 2.99998L15.7499 3.08998ZM19.2499 9.99998L17.6099 11.25L18.1999 13.23L16.4999 12.06L14.7999 13.23L15.3899 11.25L13.7499 9.99998L15.8099 9.94998L16.4999 7.99998L17.1899 9.94998L19.2499 9.99998ZM16.9699 14.95C17.7999 14.87 18.6899 16.05 18.1599 16.8C17.8399 17.25 17.4999 17.67 17.0799 18.07C13.1699 22 6.83995 22 2.93995 18.07C-0.970054 14.17 -0.970054 7.82998 2.93995 3.92998C3.33995 3.52998 3.75995 3.16998 4.20995 2.84998C4.95995 2.31998 6.13995 3.20998 6.05995 4.03998C5.78995 6.89998 6.74995 9.86998 8.94995 12.06C11.1399 14.26 14.0999 15.22 16.9699 14.95Z" fill="white"/>
</svg>
