<svg width="20" height="19" viewBox="0 0 20 19" fill="none" xmlns="http://www.w3.org/2000/svg">
<path d="M3 14H16C18.2091 14 20 12.2091 20 10C20 8.12384 18.7083 6.54938 16.9657 6.11736C16.9884 5.9147 17 5.70871 17 5.5C17 2.46243 14.5376 0 11.5 0C8.98056 0 6.85678 1.69403 6.20557 4.00519C6.13748 4.00174 6.06894 4 6 4C3.79086 4 2 5.79086 2 8C2 8.05677 2.00118 8.11327 2.00352 8.16946C0.83649 8.5803 0 9.69246 0 11C0 12.6569 1.34315 14 3 14Z" fill="white"/>
<path d="M8.41459 15C8.91327 15 9.23761 15.5248 9.01459 15.9708L7.68541 18.6292C7.57178 18.8564 7.3395 19 7.08541 19C6.58673 19 6.2624 18.4752 6.48541 18.0292L7.81459 15.3708C7.92822 15.1436 8.1605 15 8.41459 15Z" fill="white"/>
<path d="M11.4146 15C11.9133 15 12.2376 15.5248 12.0146 15.9708L10.6854 18.6292C10.5718 18.8564 10.3395 19 10.0854 19C9.58673 19 9.2624 18.4752 9.48541 18.0292L10.8146 15.3708C10.9282 15.1436 11.1605 15 11.4146 15Z" fill="white"/>
</svg>
