<svg width="20" height="19" viewBox="0 0 20 19" fill="none" xmlns="http://www.w3.org/2000/svg">
<path d="M13.0089 14H16C18.2091 14 20 12.2091 20 10C20 8.12384 18.7083 6.54938 16.9657 6.11736C16.9884 5.9147 17 5.70871 17 5.5C17 2.46243 14.5376 0 11.5 0C8.98056 0 6.85678 1.69403 6.20557 4.00519C6.13748 4.00174 6.06894 4 6 4C3.79086 4 2 5.79086 2 8C2 8.05677 2.00118 8.11327 2.00352 8.16946C0.83649 8.5803 0 9.69246 0 11C0 12.6569 1.34315 14 3 14H5.84825L10.1318 6.50386C10.6405 5.61351 12 5.97454 12 7V11H13C13.7678 11 14.2492 11.8295 13.8682 12.4961L13.0089 14Z" fill="white"/>
<path d="M7 14L11 7V12H13L9 19V14H7Z" fill="white"/>
</svg>
