<svg width="20" height="18" viewBox="0 0 20 18" fill="none" xmlns="http://www.w3.org/2000/svg">
<path d="M3 14H16C18.2091 14 20 12.2091 20 10C20 8.12384 18.7083 6.54938 16.9657 6.11736C16.9884 5.9147 17 5.70871 17 5.5C17 2.46243 14.5376 0 11.5 0C8.98056 0 6.85678 1.69403 6.20557 4.00519C6.13748 4.00174 6.06894 4 6 4C3.79086 4 2 5.79086 2 8C2 8.05677 2.00118 8.11327 2.00352 8.16946C0.83649 8.5803 0 9.69246 0 11C0 12.6569 1.34315 14 3 14Z" fill="white"/>
<path d="M3 15C2.72386 15 2.5 15.2239 2.5 15.5C2.5 15.7761 2.72386 16 3 16H17C17.2761 16 17.5 15.7761 17.5 15.5C17.5 15.2239 17.2761 15 17 15H3Z" fill="white"/>
<path d="M3 17C2.72386 17 2.5 17.2239 2.5 17.5C2.5 17.7761 2.72386 18 3 18H17C17.2761 18 17.5 17.7761 17.5 17.5C17.5 17.2239 17.2761 17 17 17H3Z" fill="white"/>
</svg>
